<?xml version="1.0" encoding="UTF-8" standalone="no"?><!DOCTYPE svg PUBLIC "-//W3C//DTD SVG 1.1//EN" "http://www.w3.org/Graphics/SVG/1.1/DTD/svg11.dtd"><svg width="2048px" height="552px" version="1.1" xmlns="http://www.w3.org/2000/svg" xmlns:xlink="http://www.w3.org/1999/xlink" xml:space="preserve" xmlns:serif="http://www.serif.com/" style="fill-rule:evenodd;clip-rule:evenodd;stroke-linejoin:round;stroke-miterlimit:2;"><g id="V5"><g><path d="M339.559,497.924L101.962,497.924L101.962,71.361L337.801,71.361L337.801,131.127L173.153,131.127L173.153,248.9L314.657,248.9L314.657,307.494L173.153,307.494L173.153,438.451L339.559,438.451L339.559,497.924Z" style="fill:#ed1c2d;"/><path d="M445.344,339.721L445.344,497.924L374.153,497.924L374.153,71.361L515.071,71.361C543.391,71.361 567.463,77.221 587.288,88.939C607.112,100.658 622.297,116.723 632.844,137.133C643.391,157.543 648.665,180.932 648.665,207.299C648.665,234.838 643.391,258.471 632.844,278.197C622.297,297.924 607.112,313.109 587.288,323.754C567.463,334.398 543.391,339.721 515.071,339.721L445.344,339.721ZM445.344,280.248L515.071,280.248C529.915,280.248 541.829,277.123 550.813,270.873C559.797,264.623 566.389,256.029 570.588,245.092C574.788,234.154 576.887,221.752 576.887,207.885C576.887,194.604 574.788,182.104 570.588,170.385C566.389,158.666 559.797,149.193 550.813,141.967C541.829,134.74 529.915,131.127 515.071,131.127L445.344,131.127L445.344,280.248Z" style="fill:#0082c4;"/><path d="M924.958,497.924L687.36,497.924L687.36,71.361L923.2,71.361L923.2,131.127L758.551,131.127L758.551,248.9L900.055,248.9L900.055,307.494L758.551,307.494L758.551,438.451L924.958,438.451L924.958,497.924ZM1110.97,464.52C1103.14,476.709 1093.63,486.232 1082.45,493.09C1070.83,500.219 1057.21,503.783 1041.58,503.783C1025.37,503.783 1010.87,500.561 998.077,494.115C985.284,487.67 974.346,478.1 965.264,465.404C956.182,452.709 949.297,436.938 944.61,418.09C939.922,399.242 937.579,377.318 937.579,352.318L937.579,327.416C937.579,301.439 939.922,278.93 944.61,259.887C949.297,240.844 956.182,224.975 965.264,212.279C974.346,199.584 985.333,190.209 998.223,184.154C1011.11,178.1 1025.66,175.072 1041.88,175.072C1057.7,175.072 1071.37,178.637 1082.89,185.766C1092.38,191.639 1100.69,199.534 1107.79,209.451L1107.79,47.924L1176.06,47.924L1176.06,497.924L1114.24,498.217L1110.97,464.52ZM1107.79,264.825C1105.95,261.113 1103.89,257.66 1101.64,254.467C1096.95,247.826 1091.24,242.602 1084.5,238.793C1077.76,234.984 1069.9,233.08 1060.92,233.08C1050.96,233.08 1042.46,234.984 1035.43,238.793C1028.4,242.602 1022.74,248.363 1018.44,256.078C1014.14,263.793 1010.97,273.559 1008.92,285.375C1006.87,297.191 1005.84,311.205 1005.84,327.416L1005.84,352.318C1005.84,368.529 1006.82,382.494 1008.77,394.213C1010.72,405.932 1013.85,415.551 1018.14,423.07C1022.44,430.59 1028.11,436.156 1035.14,439.77C1042.17,443.383 1050.66,445.189 1060.63,445.189C1073.13,445.189 1083.33,442.064 1091.24,435.814C1098.07,430.42 1103.59,423.39 1107.79,414.722L1107.79,264.825ZM1294.14,180.932L1294.14,497.924L1225.88,497.924L1225.88,180.932L1294.14,180.932ZM1222.37,97.729C1222.37,86.791 1225.69,77.709 1232.33,70.482C1238.97,63.256 1248.25,59.643 1260.16,59.643C1272.08,59.643 1281.35,63.256 1287.99,70.482C1294.63,77.709 1297.95,86.791 1297.95,97.729C1297.95,108.471 1294.63,117.455 1287.99,124.682C1281.35,131.908 1272.08,135.521 1260.16,135.521C1248.25,135.521 1238.97,131.908 1232.33,124.682C1225.69,117.455 1222.37,108.471 1222.37,97.729ZM1357.74,233.666L1315.26,233.666L1315.26,180.932L1357.74,180.932L1357.74,103.295L1425.71,103.295L1425.71,180.932L1470.83,180.932L1470.83,233.666L1425.71,233.666L1425.71,409.447C1425.71,419.213 1426.79,426.635 1428.93,431.713C1431.08,436.791 1434.11,440.209 1438.02,441.967C1441.92,443.725 1446.51,444.604 1451.79,444.604C1455.69,444.604 1459.55,444.262 1463.36,443.578C1467.17,442.895 1469.95,442.26 1471.71,441.674L1471.71,496.752C1466.63,498.705 1460.77,500.365 1454.13,501.732C1447.49,503.1 1439.48,503.783 1430.11,503.783C1416.24,503.783 1403.84,500.902 1392.9,495.141C1381.96,489.379 1373.37,479.906 1367.12,466.723C1360.87,453.539 1357.74,436.01 1357.74,414.135L1357.74,233.666ZM1507.77,469.213C1507.77,460.033 1510.65,452.27 1516.41,445.922C1522.17,439.574 1530.52,436.4 1541.46,436.4C1552.39,436.4 1560.75,439.574 1566.51,445.922C1572.27,452.27 1575.15,460.033 1575.15,469.213C1575.15,478.197 1572.27,485.814 1566.51,492.064C1560.75,498.314 1552.39,501.439 1541.46,501.439C1530.52,501.439 1522.17,498.314 1516.41,492.064C1510.65,485.814 1507.77,478.197 1507.77,469.213Z" style="fill:#4f535b;"/><path d="M1720.17,410.619L1720.17,213.549L1772.73,213.549L1772.73,410.619C1772.73,429.63 1768.98,445.938 1761.48,459.545C1753.98,473.152 1743.75,483.601 1730.8,490.893C1717.85,498.184 1703.29,501.83 1687.12,501.83C1670.36,501.83 1655.54,498.705 1642.65,492.455C1629.76,486.205 1619.62,476.602 1612.24,463.646C1604.86,450.691 1601.16,434.252 1601.16,414.33L1654.08,414.33C1654.08,424.747 1655.39,433.015 1658.03,439.135C1660.67,445.255 1664.45,449.617 1669.37,452.221C1674.29,454.825 1680.21,456.127 1687.12,456.127C1693.8,456.127 1699.6,454.369 1704.52,450.854C1709.45,447.338 1713.28,442.195 1716.04,435.424C1718.79,428.653 1720.17,420.385 1720.17,410.619ZM1943.77,423.51C1943.77,418.432 1943.1,413.842 1941.75,409.74C1940.4,405.639 1937.91,401.863 1934.28,398.412C1930.64,394.962 1925.55,391.544 1918.98,388.158C1912.42,384.773 1903.93,381.257 1893.5,377.611C1881.89,373.445 1870.91,368.757 1860.54,363.549C1850.17,358.34 1841.03,352.253 1833.12,345.287C1825.2,338.321 1818.99,330.215 1814.48,320.971C1809.97,311.726 1807.72,300.984 1807.72,288.744C1807.72,276.895 1810.06,266.12 1814.75,256.42C1819.43,246.719 1826,238.386 1834.43,231.42C1842.87,224.454 1852.86,219.083 1864.4,215.307C1875.95,211.531 1888.63,209.643 1902.46,209.643C1921.33,209.643 1937.79,213.419 1951.86,220.971C1965.92,228.523 1976.85,238.874 1984.64,252.025C1992.43,265.176 1996.33,280.215 1996.33,297.143L1943.94,297.143C1943.94,288.809 1942.39,281.485 1939.29,275.17C1936.18,268.855 1931.49,263.842 1925.22,260.131C1918.95,256.42 1911.07,254.564 1901.58,254.564C1892.44,254.564 1884.82,256.127 1878.73,259.252C1872.64,262.377 1868.07,266.511 1865.02,271.654C1861.97,276.798 1860.45,282.559 1860.45,288.939C1860.45,293.757 1861.53,298.119 1863.7,302.025C1865.87,305.932 1869.12,309.577 1873.46,312.963C1877.79,316.348 1883.12,319.538 1889.45,322.533C1895.78,325.528 1903.11,328.458 1911.43,331.322C1925.37,336.01 1937.65,341.283 1948.25,347.143C1958.86,353.002 1967.73,359.577 1974.88,366.869C1982.03,374.161 1987.42,382.429 1991.05,391.674C1994.69,400.919 1996.5,411.4 1996.5,423.119C1996.5,435.489 1994.34,446.557 1990,456.322C1985.66,466.088 1979.39,474.356 1971.19,481.127C1962.99,487.898 1953.2,493.041 1941.84,496.557C1930.47,500.072 1917.75,501.83 1903.69,501.83C1891.04,501.83 1878.55,499.975 1866.25,496.264C1853.94,492.553 1842.78,486.921 1832.76,479.369C1822.74,471.817 1814.75,462.182 1808.77,450.463C1802.79,438.744 1799.8,424.877 1799.8,408.861L1852.72,408.861C1852.72,417.715 1853.94,425.202 1856.41,431.322C1858.87,437.442 1862.35,442.39 1866.87,446.166C1871.38,449.942 1876.77,452.709 1883.04,454.467C1889.31,456.225 1896.19,457.104 1903.69,457.104C1912.83,457.104 1920.36,455.639 1926.28,452.709C1932.2,449.779 1936.59,445.775 1939.46,440.697C1942.33,435.619 1943.77,429.89 1943.77,423.51Z" style="fill:#ebbd06;"/></g></g></svg>