<?xml version="1.0" encoding="UTF-8" standalone="no"?><!DOCTYPE svg PUBLIC "-//W3C//DTD SVG 1.1//EN" "http://www.w3.org/Graphics/SVG/1.1/DTD/svg11.dtd"><svg width="100%" height="100%" viewBox="0 0 1024 256" version="1.1" xmlns="http://www.w3.org/2000/svg" xmlns:xlink="http://www.w3.org/1999/xlink" xml:space="preserve" xmlns:serif="http://www.serif.com/" style="fill-rule:evenodd;clip-rule:evenodd;stroke-linejoin:round;stroke-miterlimit:2;"><g id="exploded" transform="matrix(1.24932,0,0,1.24932,546.379,-538.615)"><path d="M-296.07,622.4L-387.878,622.4L-387.878,451.682L-297.243,451.682L-297.243,470.208L-366.304,470.208L-366.304,525.081L-306.036,525.081L-306.036,543.49L-366.304,543.49L-366.304,603.992L-296.07,603.992L-296.07,622.4ZM-258.948,555.45L-258.948,622.4L-280.523,622.4L-280.523,451.682L-226.118,451.682C-215.096,451.682 -205.794,453.91 -198.212,458.365C-190.63,462.821 -184.865,468.977 -180.918,476.832C-176.97,484.688 -174.996,493.658 -174.996,503.742C-174.996,514.685 -176.97,524.026 -180.918,531.765C-184.865,539.503 -190.63,545.385 -198.212,549.411C-205.794,553.437 -215.096,555.45 -226.118,555.45L-258.948,555.45ZM-258.948,537.041L-226.118,537.041C-219.083,537.041 -213.396,535.634 -209.058,532.82C-204.72,530.006 -201.554,526.098 -199.561,521.095C-197.567,516.092 -196.571,510.386 -196.571,503.976C-196.571,498.114 -197.567,492.603 -199.561,487.444C-201.554,482.285 -204.72,478.122 -209.058,474.956C-213.396,471.791 -219.083,470.208 -226.118,470.208L-258.948,470.208L-258.948,537.041ZM-67.641,622.4L-159.449,622.4L-159.449,451.682L-68.814,451.682L-68.814,470.208L-137.875,470.208L-137.875,525.081L-77.607,525.081L-77.607,543.49L-137.875,543.49L-137.875,603.992L-67.641,603.992L-67.641,622.4ZM10.119,608.598C9.98,608.823 9.84,609.047 9.698,609.268C6.493,614.271 2.506,618.101 -2.262,620.758C-7.03,623.416 -12.697,624.745 -19.263,624.745C-25.517,624.745 -31.223,623.514 -36.382,621.052C-41.541,618.589 -46.016,614.876 -49.807,609.913C-53.598,604.949 -56.51,598.735 -58.542,591.27C-60.575,583.805 -61.591,575.07 -61.591,565.064L-61.591,553.222C-61.591,542.747 -60.575,533.738 -58.542,526.195C-56.51,518.652 -53.618,512.438 -49.866,507.552C-46.114,502.667 -41.619,499.052 -36.382,496.707C-31.145,494.362 -25.36,493.189 -19.029,493.189C-12.463,493.189 -6.815,494.518 -2.086,497.176C2.415,499.705 6.226,503.314 9.346,508.004L9.346,442.302L29.982,442.302L29.982,622.4L11.105,622.4L10.119,608.598ZM9.346,527.124C8.227,524.936 6.957,522.906 5.535,521.036C3.308,518.105 0.611,515.779 -2.555,514.06C-5.721,512.34 -9.414,511.48 -13.635,511.48C-18.403,511.48 -22.527,512.34 -26.005,514.06C-29.484,515.779 -32.298,518.359 -34.447,521.798C-36.597,525.238 -38.199,529.576 -39.255,534.813C-40.31,540.05 -40.837,546.187 -40.837,553.222L-40.837,565.064C-40.837,572.099 -40.329,578.216 -39.313,583.414C-38.297,588.612 -36.695,592.911 -34.506,596.312C-32.317,599.712 -29.523,602.233 -26.122,603.874C-22.722,605.516 -18.638,606.337 -13.87,606.337C-8.085,606.337 -3.356,604.93 0.318,602.116C3.992,599.301 6.942,595.569 9.17,590.918C9.229,590.795 9.288,590.672 9.346,590.548L9.346,527.124ZM72.263,495.534L72.263,622.4L51.627,622.4L51.627,495.534L72.263,495.534ZM50.454,461.883C50.454,458.365 51.432,455.395 53.386,452.972C55.34,450.549 58.271,449.337 62.18,449.337C66.088,449.337 69.039,450.549 71.032,452.972C73.025,455.395 74.022,458.365 74.022,461.883C74.022,465.244 73.025,468.117 71.032,470.501C69.039,472.885 66.088,474.077 62.18,474.077C58.271,474.077 55.34,472.885 53.386,470.501C51.432,468.117 50.454,465.244 50.454,461.883ZM99.536,512.184L80.189,512.184L80.189,495.534L99.536,495.534L99.536,464.697L120.289,464.697L120.289,495.534L139.401,495.534L139.401,512.184L120.289,512.184L120.289,590.977C120.289,595.276 120.817,598.52 121.872,600.709C122.927,602.897 124.276,604.343 125.917,605.047C127.559,605.75 129.318,606.102 131.194,606.102C132.601,606.102 134.164,605.926 135.884,605.574C137.603,605.223 138.776,604.93 139.401,604.695L139.284,622.4C137.877,622.947 136.001,623.475 133.656,623.983C131.311,624.491 128.341,624.745 124.745,624.745C120.289,624.745 116.146,623.69 112.316,621.579C108.486,619.469 105.398,615.932 103.053,610.968C100.708,606.004 99.536,599.301 99.536,590.859L99.536,512.184ZM156.512,612.141C156.512,608.949 157.515,606.236 159.522,604.001C161.528,601.767 164.401,600.65 168.14,600.65C171.696,600.65 174.523,601.767 176.621,604.001C178.718,606.236 179.767,608.949 179.767,612.141C179.767,615.332 178.718,618.045 176.621,620.28C174.523,622.514 171.696,623.631 168.14,623.631C164.401,623.631 161.528,622.514 159.522,620.28C157.515,618.045 156.512,615.332 156.512,612.141Z" style="fill:rgb(79,83,91);"/><path d="M237.333,587.459L237.333,508.588L257.2,508.588L257.2,587.459C257.2,595.067 255.782,601.594 252.947,607.04C250.113,612.486 246.248,616.668 241.353,619.586C236.459,622.504 230.955,623.963 224.842,623.963C218.508,623.963 212.905,622.713 208.032,620.211C203.16,617.71 199.328,613.867 196.538,608.682C193.747,603.496 192.352,596.917 192.352,588.944L212.351,588.944C212.351,593.113 212.849,596.422 213.846,598.872C214.843,601.321 216.271,603.067 218.132,604.109C219.992,605.151 222.229,605.672 224.842,605.672C227.367,605.672 229.56,604.969 231.42,603.562C233.28,602.155 234.731,600.096 235.772,597.386C236.813,594.677 237.333,591.367 237.333,587.459ZM317.769,592.618C317.769,590.586 317.514,588.749 317.005,587.107C316.495,585.466 315.554,583.955 314.181,582.574C312.808,581.193 310.881,579.825 308.4,578.47C305.92,577.115 302.708,575.708 298.766,574.249C294.381,572.581 290.228,570.705 286.308,568.621C282.388,566.536 278.933,564.1 275.943,561.312C272.953,558.524 270.606,555.28 268.9,551.58C267.195,547.88 266.342,543.581 266.342,538.683C266.342,533.94 267.228,529.628 269,525.746C270.772,521.864 273.252,518.528 276.441,515.74C279.631,512.952 283.407,510.803 287.77,509.292C292.133,507.78 296.928,507.025 302.155,507.025C309.286,507.025 315.51,508.536 320.825,511.558C326.14,514.581 330.271,518.724 333.217,523.987C336.162,529.25 337.635,535.269 337.635,542.044L317.835,542.044C317.835,538.709 317.248,535.777 316.074,533.25C314.901,530.723 313.129,528.716 310.759,527.231C308.389,525.746 305.41,525.003 301.822,525.003C298.367,525.003 295.488,525.629 293.185,526.879C290.882,528.13 289.154,529.784 288.002,531.843C286.851,533.901 286.275,536.207 286.275,538.761C286.275,540.689 286.685,542.435 287.504,543.998C288.324,545.561 289.553,547.02 291.192,548.375C292.831,549.73 294.846,551.007 297.238,552.206C299.63,553.404 302.398,554.577 305.543,555.723C310.814,557.599 315.454,559.71 319.463,562.055C323.472,564.4 326.827,567.031 329.529,569.95C332.231,572.868 334.269,576.177 335.642,579.877C337.015,583.577 337.701,587.772 337.701,592.462C337.701,597.412 336.882,601.842 335.243,605.75C333.604,609.659 331.234,612.968 328.134,615.678C325.033,618.387 321.334,620.446 317.038,621.853C312.741,623.26 307.935,623.963 302.62,623.963C297.836,623.963 293.119,623.221 288.468,621.736C283.817,620.25 279.597,617.997 275.81,614.974C272.023,611.952 269,608.095 266.741,603.405C264.482,598.715 263.352,593.165 263.352,586.756L283.351,586.756C283.351,590.299 283.817,593.296 284.747,595.745C285.677,598.194 286.995,600.174 288.7,601.686C290.405,603.197 292.443,604.304 294.813,605.008C297.183,605.711 299.785,606.063 302.62,606.063C306.075,606.063 308.921,605.477 311.158,604.304C313.395,603.132 315.056,601.529 316.141,599.497C317.226,597.465 317.769,595.172 317.769,592.618Z" style="fill:rgb(235,189,6);"/></g></svg>