<?xml version="1.0" encoding="UTF-8" standalone="no"?><!DOCTYPE svg PUBLIC "-//W3C//DTD SVG 1.1//EN" "http://www.w3.org/Graphics/SVG/1.1/DTD/svg11.dtd"><svg width="1024px" height="276px" version="1.1" xmlns="http://www.w3.org/2000/svg" xmlns:xlink="http://www.w3.org/1999/xlink" xml:space="preserve" xmlns:serif="http://www.serif.com/" style="fill-rule:evenodd;clip-rule:evenodd;stroke-linejoin:round;stroke-miterlimit:2;"><g id="V4"><g><path d="M158.483,248.962L39.684,248.962L39.684,35.681L157.604,35.681L157.604,65.563L75.28,65.563L75.28,124.45L146.032,124.45L146.032,153.747L75.28,153.747L75.28,219.226L158.483,219.226L158.483,248.962Z" style="fill:#ed1c2d;"/><path d="M211.376,169.86L211.376,248.962L175.78,248.962L175.78,35.681L246.239,35.681C260.399,35.681 272.435,38.61 282.347,44.47C292.26,50.329 299.852,58.361 305.126,68.566C310.399,78.771 313.036,90.466 313.036,103.649C313.036,117.419 310.399,129.235 305.126,139.099C299.852,148.962 292.26,156.555 282.347,161.877C272.435,167.199 260.399,169.86 246.239,169.86L211.376,169.86ZM211.376,140.124L246.239,140.124C253.661,140.124 259.618,138.562 264.11,135.437C268.602,132.312 271.898,128.015 273.998,122.546C276.097,117.077 277.147,110.876 277.147,103.942C277.147,97.302 276.097,91.052 273.998,85.192C271.898,79.333 268.602,74.597 264.11,70.983C259.618,67.37 253.661,65.563 246.239,65.563L211.376,65.563L211.376,140.124Z" style="fill:#0082c4;"/><path d="M451.182,248.962L332.384,248.962L332.384,35.681L450.303,35.681L450.303,65.563L367.979,65.563L367.979,124.45L438.731,124.45L438.731,153.747L367.979,153.747L367.979,219.226L451.182,219.226L451.182,248.962ZM544.19,232.26C540.272,238.354 535.519,243.116 529.929,246.545C524.119,250.109 517.307,251.892 509.495,251.892C501.389,251.892 494.138,250.28 487.742,247.058C481.345,243.835 475.877,239.05 471.336,232.702C466.795,226.354 463.352,218.469 461.009,209.045C458.665,199.621 457.493,188.659 457.493,176.159L457.493,163.708C457.493,150.72 458.665,139.465 461.009,129.943C463.352,120.422 466.795,112.487 471.336,106.14C475.877,99.792 481.37,95.104 487.815,92.077C494.26,89.05 501.536,87.536 509.641,87.536C517.552,87.536 524.387,89.318 530.149,92.883C534.896,95.82 539.047,99.767 542.6,104.726L542.6,23.962L576.731,23.962L576.731,248.962L545.823,249.108L544.19,232.26ZM542.6,132.413C541.677,130.556 540.651,128.83 539.524,127.233C537.18,123.913 534.324,121.301 530.955,119.396C527.586,117.492 523.655,116.54 519.163,116.54C514.182,116.54 509.934,117.492 506.419,119.396C502.903,121.301 500.071,124.182 497.923,128.039C495.774,131.896 494.187,136.779 493.162,142.688C492.136,148.596 491.624,155.603 491.624,163.708L491.624,176.159C491.624,184.265 492.112,191.247 493.089,197.106C494.065,202.966 495.628,207.775 497.776,211.535C499.925,215.295 502.757,218.078 506.272,219.885C509.788,221.691 514.036,222.595 519.016,222.595C525.266,222.595 530.369,221.032 534.324,217.907C537.737,215.21 540.496,211.695 542.6,207.361L542.6,132.413ZM635.776,90.466L635.776,248.962L601.645,248.962L601.645,90.466L635.776,90.466ZM599.887,48.864C599.887,43.396 601.548,38.854 604.868,35.241C608.188,31.628 612.827,29.821 618.784,29.821C624.741,29.821 629.38,31.628 632.7,35.241C636.02,38.854 637.68,43.396 637.68,48.864C637.68,54.235 636.02,58.728 632.7,62.341C629.38,65.954 624.741,67.761 618.784,67.761C612.827,67.761 608.188,65.954 604.868,62.341C601.548,58.728 599.887,54.235 599.887,48.864ZM667.575,116.833L646.335,116.833L646.335,90.466L667.575,90.466L667.575,51.647L701.559,51.647L701.559,90.466L724.118,90.466L724.118,116.833L701.559,116.833L701.559,204.724C701.559,209.606 702.096,213.317 703.171,215.856C704.245,218.396 705.759,220.104 707.712,220.983C709.665,221.862 711.96,222.302 714.596,222.302C716.55,222.302 718.478,222.131 720.383,221.789C722.287,221.447 723.678,221.13 724.557,220.837L724.557,248.376C722.018,249.353 719.089,250.183 715.768,250.866C712.448,251.55 708.444,251.892 703.757,251.892C696.823,251.892 690.622,250.451 685.153,247.57C679.684,244.689 675.387,239.953 672.262,233.361C669.137,226.77 667.575,218.005 667.575,207.067L667.575,116.833ZM742.587,234.606C742.587,230.017 744.027,226.135 746.908,222.961C749.789,219.787 753.964,218.2 759.432,218.2C764.901,218.2 769.076,219.787 771.957,222.961C774.838,226.135 776.278,230.017 776.278,234.606C776.278,239.099 774.838,242.907 771.957,246.032C769.076,249.157 764.901,250.72 759.432,250.72C753.964,250.72 749.789,249.157 746.908,246.032C744.027,242.907 742.587,239.099 742.587,234.606Z" style="fill:#4f535b;"/><path d="M848.788,205.31L848.788,106.774L875.067,106.774L875.067,205.31C875.067,214.815 873.192,222.969 869.442,229.772C865.692,236.576 860.58,241.8 854.105,245.446C847.631,249.092 840.35,250.915 832.264,250.915C823.885,250.915 816.473,249.353 810.028,246.228C803.583,243.103 798.514,238.301 794.823,231.823C791.132,225.345 789.286,217.126 789.286,207.165L815.741,207.165C815.741,212.373 816.4,216.507 817.718,219.567C819.037,222.627 820.927,224.808 823.387,226.11C825.848,227.412 828.807,228.063 832.264,228.063C835.604,228.063 838.505,227.185 840.966,225.427C843.427,223.669 845.345,221.097 846.722,217.712C848.099,214.326 848.788,210.192 848.788,205.31ZM960.588,211.755C960.588,209.216 960.251,206.921 959.577,204.87C958.904,202.819 957.659,200.931 955.842,199.206C954.026,197.481 951.477,195.772 948.196,194.079C944.914,192.386 940.666,190.629 935.452,188.806C929.651,186.722 924.158,184.379 918.972,181.774C913.786,179.17 909.216,176.127 905.261,172.644C901.306,169.16 898.201,165.108 895.945,160.485C893.689,155.863 892.561,150.492 892.561,144.372C892.561,138.448 893.733,133.06 896.077,128.21C898.42,123.36 901.702,119.193 905.92,115.71C910.139,112.227 915.134,109.541 920.906,107.653C926.677,105.765 933.02,104.821 939.934,104.821C949.368,104.821 957.6,106.709 964.631,110.485C971.662,114.261 977.126,119.437 981.023,126.013C984.919,132.588 986.868,140.108 986.868,148.571L960.676,148.571C960.676,144.405 959.9,140.743 958.347,137.585C956.794,134.427 954.451,131.921 951.316,130.065C948.181,128.21 944.241,127.282 939.494,127.282C934.924,127.282 931.116,128.063 928.069,129.626C925.022,131.188 922.737,133.256 921.213,135.827C919.69,138.399 918.928,141.28 918.928,144.47C918.928,146.879 919.47,149.06 920.554,151.013C921.638,152.966 923.264,154.789 925.432,156.481C927.6,158.174 930.266,159.769 933.43,161.267C936.594,162.764 940.256,164.229 944.416,165.661C951.389,168.005 957.527,170.642 962.829,173.571C968.132,176.501 972.571,179.789 976.145,183.435C979.719,187.08 982.414,191.215 984.231,195.837C986.047,200.459 986.955,205.7 986.955,211.56C986.955,217.744 985.871,223.278 983.703,228.161C981.535,233.044 978.401,237.178 974.299,240.563C970.198,243.949 965.305,246.521 959.621,248.278C953.938,250.036 947.58,250.915 940.549,250.915C934.221,250.915 927.981,249.987 921.828,248.132C915.676,246.276 910.095,243.461 905.085,239.685C900.076,235.909 896.077,231.091 893.088,225.231C890.1,219.372 888.606,212.438 888.606,204.431L915.061,204.431C915.061,208.858 915.676,212.601 916.907,215.661C918.137,218.721 919.88,221.195 922.136,223.083C924.392,224.971 927.087,226.354 930.222,227.233C933.357,228.112 936.799,228.552 940.549,228.552C945.119,228.552 948.884,227.819 951.843,226.354C954.802,224.89 956.999,222.888 958.435,220.349C959.87,217.81 960.588,214.945 960.588,211.755Z" style="fill:#ebbd06;"/></g></g></svg>